<?xml version="1.0" standalone="no"?><!DOCTYPE svg PUBLIC "-//W3C//DTD SVG 1.1//EN" "http://www.w3.org/Graphics/SVG/1.1/DTD/svg11.dtd"><svg t="1691838695204" class="icon" viewBox="0 0 1024 1024" version="1.1" xmlns="http://www.w3.org/2000/svg" p-id="6525" xmlns:xlink="http://www.w3.org/1999/xlink" width="128" height="128"><path d="M853.2 79.6H567.9v578.6c0 17-13.1 30.9-29.3 30.9s-29.3-13.8-29.3-30.9V79.6H176c-47.6 0-86.4 38.7-86.4 86.4v617.7c0 47.6 38.7 86.4 86.4 86.4h224.9l95.6 75.1c5.3 4.2 11.7 6.2 18.1 6.2 7.2 0 14.5-2.7 20.1-8l77.8-73.3h240.8c47.6 0 86.4-38.7 86.4-86.4V165.9c-0.1-47.6-38.9-86.3-86.5-86.3z m-419.5 557H355c-16.2 0-29.3-13.1-29.3-29.3 0-16.2 13.1-29.3 29.3-29.3h78.7c16.2 0 29.3 13.1 29.3 29.3-0.1 16.1-13.2 29.3-29.3 29.3z m0-157.4h-105c-16.2 0-29.3-13.1-29.3-29.3 0-16.2 13.1-29.3 29.3-29.3h104.9c16.2 0 29.3 13.1 29.3 29.3 0 16.2-13.1 29.3-29.2 29.3z m0-157.4H355c-16.2 0-29.3-13.1-29.3-29.3 0-16.2 13.1-29.3 29.3-29.3h78.7c16.2 0 29.3 13.1 29.3 29.3-0.1 16.2-13.2 29.3-29.3 29.3z" fill="#dbdbdb" p-id="6526"></path></svg>